<?xml version="1.0" encoding="utf-8"?>
<!-- Generator: Adobe Illustrator 25.0.0, SVG Export Plug-In . SVG Version: 6.00 Build 0)  -->
<svg version="1.1" id="Layer_1" xmlns="http://www.w3.org/2000/svg" xmlns:xlink="http://www.w3.org/1999/xlink" x="0px" y="0px"
	 viewBox="0 0 600 600" style="enable-background:new 0 0 600 600;" xml:space="preserve">
<style type="text/css">
	.st0{fill:url(#SVGID_1_);}
	.st1{fill:#F0C767;}
	.st2{fill:#7ACED6;}
	.st3{fill:url(#SVGID_2_);}
	.st4{fill:url(#SVGID_3_);}
	.st5{fill:#9E6DAF;}
</style>
<g>
	<linearGradient id="SVGID_1_" gradientUnits="userSpaceOnUse" x1="39.4814" y1="300" x2="610.6057" y2="300">
		<stop  offset="0" style="stop-color:#4D4A5F"/>
		<stop  offset="0.5" style="stop-color:#36363F"/>
		<stop  offset="1" style="stop-color:#33333B"/>
	</linearGradient>
	<path class="st0" d="M432.21,6.65H167.79C79.16,6.65,6.65,79.16,6.65,167.79v264.41c0,88.63,72.52,161.15,161.15,161.15h264.41
		c88.63,0,161.15-72.52,161.15-161.15V167.79C593.35,79.16,520.84,6.65,432.21,6.65z"/>
	<g>
		<g>
			<g>
				<path class="st1" d="M317.2,164.78c0-8.22-6.67-14.89-14.89-14.89c-8.22,0-14.89,6.67-14.89,14.89
					c0,8.22,6.67,14.89,14.89,14.89C310.53,179.66,317.2,173,317.2,164.78z"/>
			</g>
		</g>
		<g>
			<g>
				<path class="st2" d="M343.59,110.67c0-6.57-5.33-11.9-11.9-11.9c-6.57,0-11.9,5.33-11.9,11.9c0,6.57,5.33,11.9,11.9,11.9
					C338.26,122.58,343.59,117.25,343.59,110.67z"/>
			</g>
		</g>
		<g>
			<g>
				<path class="st2" d="M278.22,102.39c0-4.07-3.3-7.36-7.36-7.36c-4.07,0-7.36,3.3-7.36,7.36c0,4.07,3.3,7.36,7.36,7.36
					C274.93,109.76,278.22,106.46,278.22,102.39z"/>
			</g>
		</g>
		<linearGradient id="SVGID_2_" gradientUnits="userSpaceOnUse" x1="405.9724" y1="213.8073" x2="405.9724" y2="458.7798">
			<stop  offset="0" style="stop-color:#F1C264"/>
			<stop  offset="1" style="stop-color:#A171AD"/>
		</linearGradient>
		<path class="st3" d="M443.79,460.56c-59.62,0-108.12-48.5-108.12-108.12V237.94c0-17.94,14.54-32.48,32.48-32.48
			c17.94,0,32.48,14.55,32.48,32.48v114.49c0,23.8,19.36,43.15,43.15,43.15c17.94,0,32.48,14.55,32.48,32.48
			C476.28,446.02,461.74,460.56,443.79,460.56z"/>
		<g>
			<linearGradient id="SVGID_3_" gradientUnits="userSpaceOnUse" x1="318.8331" y1="373.9323" x2="139.8096" y2="373.9323">
				<stop  offset="0" style="stop-color:#F1C264"/>
				<stop  offset="1" style="stop-color:#A171AD"/>
			</linearGradient>
			<path class="st4" d="M283.6,500.53c-17.94,0-32.48-14.54-32.48-32.48V354.91c0-23.49-19.11-42.6-42.59-42.6
				c-23.5,0-42.6,19.11-42.6,42.6c0,23.1,18.78,42.21,41.86,42.59c17.93,0.3,32.24,15.08,31.95,33.02
				c-0.3,17.75-14.78,31.95-32.47,31.95c-0.18,0-0.36,0-0.55-0.01c-58.32-0.96-105.75-49.21-105.75-107.55
				c0-59.31,48.26-107.57,107.57-107.57c59.31,0,107.56,48.26,107.56,107.57v113.14C316.08,485.98,301.54,500.53,283.6,500.53z"/>
		</g>
		<g>
			<g>
				
					<ellipse transform="matrix(0.9944 -0.1059 0.1059 0.9944 -27.0195 48.7546)" class="st5" cx="445.7" cy="278.87" rx="32.17" ry="32.17"/>
			</g>
		</g>
	</g>
</g>
</svg>
